<?xml version="1.0" encoding="iso-8859-1"?>
<!-- Generator: Adobe Illustrator 21.0.0, SVG Export Plug-In . SVG Version: 6.00 Build 0)  -->
<svg xmlns="http://www.w3.org/2000/svg" xmlns:xlink="http://www.w3.org/1999/xlink" version="1.1" id="Capa_1" x="0px" y="0px" viewBox="0 0 512 512" style="enable-background:new 0 0 512 512;" xml:space="preserve" width="512" height="512">
<g>
	<path d="M512,172.412h-47.01c-14.266-40.7-40.662-77.084-75.192-103.323C351.052,39.647,304.785,24.085,256,24.085   c-48.784,0-95.051,15.562-133.797,45.004c-34.53,26.238-60.926,62.622-75.192,103.323H0v167.703h47.193   c14.388,40.724,40.964,77.113,75.626,103.262c38.622,29.137,84.676,44.538,133.181,44.538c48.506,0,94.559-15.401,133.182-44.538   c34.662-26.149,61.237-62.538,75.625-103.262H512V172.412z M432.887,172.412h-66.706c-7.368-26.51-18.667-51.528-33.668-74.514   c-8.913-13.658-19.032-26.427-30.275-38.23c24.977,6.173,48.466,17.394,69.409,33.308   C398.684,113.521,419.952,141.247,432.887,172.412z M240.995,70.934v101.478h-63.878c6.5-20.57,15.702-40.056,27.489-58.118   C214.947,98.447,227.136,83.947,240.995,70.934z M270.995,70.929c13.861,13.014,26.052,27.516,36.395,43.365   c11.787,18.062,20.989,37.549,27.489,58.118h-63.883V70.929z M140.354,92.976c20.941-15.912,44.427-27.133,69.402-33.306   c-11.242,11.802-21.361,24.571-30.274,38.229c-15.001,22.986-26.3,48.004-33.668,74.514H79.113   C92.048,141.246,113.317,113.52,140.354,92.976z M79.327,340.115h66.429c12.607,41.984,35.18,80.957,64.648,112.368   c-25.001-6.088-48.531-17.223-69.517-33.055C113.764,398.967,92.368,371.269,79.327,340.115z M270.995,441.111V340.115h63.729   C322.401,378.977,300.738,413.273,270.995,441.111z M240.995,440.808c-28.474-27.327-50.716-62.393-63.738-100.694h63.738V440.808z    M371.113,419.427c-20.807,15.697-44.115,26.779-68.878,32.901c11.07-11.621,21.055-24.178,29.867-37.599   c15.1-22.996,26.482-48.053,33.923-74.614h66.647C419.632,371.269,398.235,398.967,371.113,419.427z M482,310.115H30V202.412h452   V310.115z"/>
	<polygon points="134.353,290.029 145.304,255.612 155.703,290.029 178.985,290.029 199.599,225.611 178.985,225.611    167.114,262.698 155.887,225.611 135.917,225.611 124.046,262.237 112.818,225.611 90.456,225.611 111.07,290.029  "/>
	<polygon points="245.329,290.029 256.28,255.612 266.68,290.029 289.962,290.029 310.575,225.611 289.962,225.611 278.091,262.698    266.863,225.611 246.894,225.611 235.022,262.237 223.795,225.611 201.433,225.611 222.047,290.029  "/>
	<polygon points="356.305,290.029 367.256,255.612 377.655,290.029 400.938,290.029 421.551,225.611 400.938,225.611    389.066,262.698 377.839,225.611 357.869,225.611 345.998,262.237 334.771,225.611 312.408,225.611 333.022,290.029  "/>
</g>
</svg>
